<svg width="402" height="78" fill="none" xmlns="http://www.w3.org/2000/svg"><path d="M125.805 48.727V29.654h3.794l7.035 11.28-2.465-.027 7.146-11.253h3.656v19.073h-4.072V42.27c0-1.653.037-3.143.111-4.47.092-1.325.24-2.633.443-3.923l.471 1.28-5.678 8.639h-1.855l-5.54-8.584.443-1.335c.222 1.217.37 2.47.444 3.76.092 1.29.138 2.834.138 4.633v6.457h-4.071zM109.332 48.727V29.654h13.073v3.597h-9.002v11.88h9.196v3.596h-13.267zm1.939-7.983v-3.488h9.804v3.488h-9.804zM99.255 49c-1.81 0-3.36-.318-4.653-.954-1.274-.654-2.373-1.598-3.296-2.834l2.604-2.888c.904 1.236 1.8 2.08 2.686 2.534a6.612 6.612 0 002.908.654c.573 0 1.08-.081 1.524-.245.461-.164.821-.39 1.08-.681.277-.29.415-.627.415-1.008 0-.291-.064-.554-.194-.79a1.884 1.884 0 00-.554-.654c-.24-.2-.526-.373-.858-.518a6.092 6.092 0 00-1.108-.409c-.406-.109-.85-.209-1.33-.3-1.034-.218-1.938-.5-2.714-.844-.775-.346-1.421-.763-1.939-1.254a4.802 4.802 0 01-1.163-1.69c-.24-.653-.36-1.38-.36-2.179 0-1.126.323-2.107.97-2.943.646-.854 1.504-1.517 2.575-1.989 1.071-.49 2.253-.735 3.546-.735 1.754 0 3.194.29 4.32.871a6.958 6.958 0 012.742 2.453l-2.659 2.561c-.572-.781-1.228-1.372-1.966-1.771-.739-.4-1.533-.6-2.382-.6-.591 0-1.117.082-1.579.246-.443.145-.785.372-1.025.68-.24.291-.36.637-.36 1.036 0 .327.083.618.25.872.166.255.397.482.692.681.314.182.692.346 1.136.49.443.146.932.264 1.467.355 1.016.2 1.93.472 2.742.818.813.326 1.505.726 2.078 1.198a4.985 4.985 0 011.357 1.635c.314.618.471 1.308.471 2.071 0 1.29-.314 2.389-.942 3.297-.628.909-1.496 1.608-2.604 2.098-1.107.49-2.4.736-3.877.736zM81.388 48.89c-1.57 0-2.972-.317-4.21-.953-1.218-.654-2.178-1.544-2.88-2.67-.702-1.145-1.052-2.434-1.052-3.87v-11.77H77.4v11.525c0 .763.175 1.454.526 2.071.37.6.859 1.081 1.468 1.444.61.364 1.274.545 1.994.545.757 0 1.44-.181 2.05-.545a3.966 3.966 0 001.468-1.444c.369-.617.554-1.308.554-2.07V29.626h4.016v11.77c0 1.436-.351 2.725-1.053 3.87-.683 1.126-1.634 2.016-2.853 2.67-1.218.636-2.612.954-4.182.954zM60.927 49c-1.422 0-2.742-.245-3.96-.736a9.577 9.577 0 01-3.13-2.043 9.863 9.863 0 01-2.05-3.134c-.48-1.199-.72-2.516-.72-3.95 0-1.418.24-2.726.72-3.925a9.863 9.863 0 012.05-3.133 9.362 9.362 0 013.13-2.07c1.218-.491 2.538-.736 3.96-.736 1.422 0 2.723.245 3.905.735 1.2.49 2.243 1.18 3.13 2.071a9.214 9.214 0 012.05 3.16c.498 1.2.747 2.498.747 3.897 0 1.417-.25 2.725-.748 3.924a9.275 9.275 0 01-2.05 3.133 9.364 9.364 0 01-3.13 2.071c-1.18.49-2.483.736-3.904.736zm0-3.87c.812 0 1.56-.145 2.243-.435a5.573 5.573 0 001.773-1.254 5.678 5.678 0 001.19-1.907c.278-.727.416-1.526.416-2.398 0-.854-.138-1.644-.415-2.37a5.678 5.678 0 00-1.191-1.908 5.057 5.057 0 00-1.773-1.253 5.383 5.383 0 00-2.243-.463c-.813 0-1.57.154-2.271.463a5.338 5.338 0 00-1.8 1.253 5.55 5.55 0 00-1.164 1.908c-.277.726-.415 1.526-.415 2.398 0 1.144.24 2.17.72 3.078a5.859 5.859 0 001.994 2.126c.85.508 1.828.763 2.936.763zM44.242 48.727V29.654h4.154v19.073h-4.154zm-12.242 0V29.654h4.154v19.073H32zm1.69-7.63v-3.76h12.657v3.76H33.69zM184.607 48.727V29.654h7.976c1.404 0 2.687.236 3.85.708a8.347 8.347 0 012.991 1.962c.831.836 1.468 1.844 1.911 3.025.444 1.162.665 2.443.665 3.842 0 1.416-.221 2.706-.665 3.869a8.745 8.745 0 01-1.911 3.024c-.83.836-1.828 1.49-2.991 1.962-1.145.454-2.428.681-3.85.681h-7.976zm4.154-2.997l-.443-.681h4.127c.831 0 1.569-.136 2.216-.409a4.604 4.604 0 001.689-1.172c.48-.526.84-1.144 1.08-1.852.24-.727.36-1.535.36-2.425 0-.89-.12-1.69-.36-2.398a4.892 4.892 0 00-1.08-1.853 4.463 4.463 0 00-1.689-1.199c-.647-.273-1.385-.409-2.216-.409h-4.21l.526-.626V45.73z" fill="white"/><path fill-rule="evenodd" clip-rule="evenodd" d="M157.048 29c-1.421 0-2.742.245-3.96.736a9.577 9.577 0 00-3.13 2.043 9.85 9.85 0 00-2.049 3.134c-.48 1.199-.721 2.516-.721 3.95 0 1.418.241 2.726.721 3.925a9.85 9.85 0 002.049 3.133c.886.89 1.93 1.58 3.13 2.07 1.218.491 2.539.736 3.96.736 1.422 0 2.724-.245 3.906-.735a9.358 9.358 0 003.129-2.071 9.22 9.22 0 002.05-3.16c.496-1.194.745-2.486.748-3.877h.028l-.001-.047c0-1.145.241-2.171.721-3.08a5.852 5.852 0 011.994-2.125c.849-.508 1.828-.763 2.936-.763.812 0 1.56.146 2.243.436a5.567 5.567 0 011.772 1.254c.517.545.914 1.18 1.191 1.907.277.727.416 1.526.416 2.398 0 .854-.139 1.644-.416 2.37a5.678 5.678 0 01-1.191 1.908 5.052 5.052 0 01-1.772 1.253 5.382 5.382 0 01-2.243.463 5.58 5.58 0 01-2.251-.454 11.387 11.387 0 01-2.093 3.422c.126.058.254.113.383.166 1.219.49 2.539.736 3.961.736 1.421 0 2.723-.246 3.905-.736a9.205 9.205 0 005.179-5.232c.498-1.199.748-2.497.748-3.896 0-1.417-.25-2.725-.748-3.924a9.266 9.266 0 00-5.179-5.204c-1.182-.49-2.484-.736-3.905-.736-1.422 0-2.742.245-3.961.736a9.587 9.587 0 00-3.13 2.043 9.85 9.85 0 00-2.049 3.134c-.48 1.199-.72 2.516-.72 3.95 0 .11.001.22.004.328h-.039a6.452 6.452 0 01-.409 2.043 5.678 5.678 0 01-1.191 1.908 5.052 5.052 0 01-1.772 1.253 5.383 5.383 0 01-2.244.463 5.577 5.577 0 01-2.271-.463 5.339 5.339 0 01-1.8-1.253 5.544 5.544 0 01-1.163-1.908c-.277-.726-.416-1.526-.416-2.398 0-1.144.24-2.17.72-3.078a5.863 5.863 0 011.995-2.126c.849-.508 1.827-.763 2.935-.763.813 0 1.561.146 2.244.436a13.266 13.266 0 012.073-3.39 10.23 10.23 0 00-.411-.18c-1.182-.49-2.484-.735-3.906-.735z" fill="white"/><path d="M348 48.385L366.385 30M348 30.385l18.385 18.384" stroke="white" stroke-width="2" stroke-linecap="round" stroke-linejoin="round"/></svg>